<svg width="294" height="349" viewBox="0 0 294 349" fill="none" xmlns="http://www.w3.org/2000/svg">
<path d="M54.1522 46.332C57.9353 48.2715 66.0419 50.6419 78.364 50.6419C90.686 50.6419 98.7926 48.2715 102.576 46.332C103.873 45.6855 103.873 43.8538 102.576 43.0995C98.7926 41.1601 90.686 38.7896 78.364 38.7896C66.0419 38.7896 57.9353 41.1601 54.1522 43.0995C52.9632 43.746 52.9632 45.6855 54.1522 46.332Z" fill="url(#paint0_linear_2_52)"/>
<path fill-rule="evenodd" clip-rule="evenodd" d="M34.4801 190.715H290.865C292.595 190.715 294 192.116 294 193.84V206.985C294 208.71 292.595 210.11 290.865 210.11H3.13456C1.40515 210.11 0 208.71 0 206.985V193.84C0 192.116 1.40515 190.715 3.13456 190.715H13.1868C14.9162 190.715 16.3213 189.315 16.3213 187.591L17.2941 6.57269C17.2941 2.90923 20.2125 0 23.8875 0H80.4176C83.7684 0 86.4706 2.69372 86.4706 6.03394V18.6405C86.4706 22.8428 89.4971 26.3985 93.6044 27.045C110.899 29.7387 123.221 36.8501 123.221 45.2545C123.221 55.9216 103.116 64.6493 78.364 64.6493C53.6118 64.6493 33.5074 55.9216 33.5074 45.2545C33.5074 36.7424 46.2618 29.4154 64.0963 26.8295C68.2037 26.183 71.3382 22.6273 71.3382 18.4251V15.0848H34.0478C32.5346 15.0848 31.3456 16.2701 31.3456 17.7786V187.591C31.3456 189.315 32.7507 190.715 34.4801 190.715ZM78.364 54.9519C95.3338 54.9519 109.169 50.3187 109.169 44.7158C109.169 39.1128 95.3338 34.4796 78.364 34.4796C61.3941 34.4796 47.5588 39.1128 47.5588 44.7158C47.5588 50.3187 61.3941 54.9519 78.364 54.9519Z" fill="url(#paint1_linear_2_52)"/>
<path d="M59.4485 88.354V74.3467C59.4485 72.5149 58.0434 71.1142 56.2059 71.1142C54.3684 71.1142 52.9632 72.5149 52.9632 74.3467V88.354C52.9632 90.1858 54.3684 91.5865 56.2059 91.5865C58.0434 91.5865 59.4485 90.1858 59.4485 88.354Z" fill="url(#paint2_linear_2_52)"/>
<path d="M76.7426 88.354V74.3467C76.7426 72.5149 75.3375 71.1142 73.5 71.1142C71.6625 71.1142 70.2573 72.5149 70.2573 74.3467V88.354C70.2573 90.1858 71.6625 91.5865 73.5 91.5865C75.3375 91.5865 76.7426 90.1858 76.7426 88.354Z" fill="url(#paint3_linear_2_52)"/>
<path d="M94.0368 74.3467V88.354C94.0368 90.1858 92.6316 91.5865 90.7941 91.5865C88.9566 91.5865 87.5515 90.1858 87.5515 88.354V74.3467C87.5515 72.5149 88.9566 71.1142 90.7941 71.1142C92.6316 71.1142 94.0368 72.5149 94.0368 74.3467Z" fill="url(#paint4_linear_2_52)"/>
<path d="M111.331 88.354V74.3467C111.331 72.5149 109.926 71.1142 108.088 71.1142C106.251 71.1142 104.846 72.5149 104.846 74.3467V88.354C104.846 90.1858 106.251 91.5865 108.088 91.5865C109.926 91.5865 111.331 90.1858 111.331 88.354Z" fill="url(#paint5_linear_2_52)"/>
<path d="M67.0147 93.7415V107.749C67.0147 109.581 65.6096 110.981 63.7721 110.981C61.9346 110.981 60.5294 109.581 60.5294 107.749V93.7415C60.5294 91.9097 61.9346 90.509 63.7721 90.509C65.6096 90.509 67.0147 91.9097 67.0147 93.7415Z" fill="url(#paint6_linear_2_52)"/>
<path d="M84.3088 107.749V93.7415C84.3088 91.9097 82.9037 90.509 81.0662 90.509C79.2287 90.509 77.8235 91.9097 77.8235 93.7415V107.749C77.8235 109.581 79.2287 110.981 81.0662 110.981C82.9037 110.981 84.3088 109.581 84.3088 107.749Z" fill="url(#paint7_linear_2_52)"/>
<path d="M101.603 93.7415V107.749C101.603 109.581 100.198 110.981 98.3603 110.981C96.5228 110.981 95.1176 109.581 95.1176 107.749V93.7415C95.1176 91.9097 96.5228 90.509 98.3603 90.509C100.198 90.509 101.603 91.9097 101.603 93.7415Z" fill="url(#paint8_linear_2_52)"/>
<path d="M118.897 107.749V93.7415C118.897 91.9097 117.492 90.509 115.654 90.509C113.817 90.509 112.412 91.9097 112.412 93.7415V107.749C112.412 109.581 113.817 110.981 115.654 110.981C117.492 110.981 118.897 109.581 118.897 107.749Z" fill="url(#paint9_linear_2_52)"/>
<path d="M274.544 215.498C285.353 215.498 294 224.118 293.784 234.892V288.551C293.784 313.765 273.679 334.237 248.819 334.237H241.901V336.176C241.901 343.288 236.173 348.998 229.039 348.891C222.013 348.783 216.501 342.749 216.501 335.745V334.345H78.364V336.284C78.364 343.396 72.6353 349.106 65.5015 348.998C58.4757 348.891 52.9632 342.857 52.9632 335.853V334.452H44.9647C20.1044 334.452 0 313.98 0 288.767V234.892C0 224.225 8.75515 215.498 19.4559 215.498V288.767C19.4559 303.205 30.9132 315.058 44.9647 315.058H249.035C263.087 315.058 274.544 303.313 274.544 288.767V215.498Z" fill="url(#paint10_linear_2_52)"/>
<defs>
<linearGradient id="paint0_linear_2_52" x1="67.1743" y1="369.703" x2="165.802" y2="74.4114" gradientUnits="userSpaceOnUse">
<stop stop-color="#0EFB8C"/>
<stop offset="1" stop-color="#00AFE1"/>
</linearGradient>
<linearGradient id="paint1_linear_2_52" x1="67.1743" y1="369.703" x2="165.802" y2="74.4114" gradientUnits="userSpaceOnUse">
<stop stop-color="#0EFB8C"/>
<stop offset="1" stop-color="#00AFE1"/>
</linearGradient>
<linearGradient id="paint2_linear_2_52" x1="67.1743" y1="369.703" x2="165.802" y2="74.4114" gradientUnits="userSpaceOnUse">
<stop stop-color="#0EFB8C"/>
<stop offset="1" stop-color="#00AFE1"/>
</linearGradient>
<linearGradient id="paint3_linear_2_52" x1="67.1743" y1="369.703" x2="165.802" y2="74.4114" gradientUnits="userSpaceOnUse">
<stop stop-color="#0EFB8C"/>
<stop offset="1" stop-color="#00AFE1"/>
</linearGradient>
<linearGradient id="paint4_linear_2_52" x1="67.1743" y1="369.703" x2="165.802" y2="74.4114" gradientUnits="userSpaceOnUse">
<stop stop-color="#0EFB8C"/>
<stop offset="1" stop-color="#00AFE1"/>
</linearGradient>
<linearGradient id="paint5_linear_2_52" x1="67.1743" y1="369.703" x2="165.802" y2="74.4114" gradientUnits="userSpaceOnUse">
<stop stop-color="#0EFB8C"/>
<stop offset="1" stop-color="#00AFE1"/>
</linearGradient>
<linearGradient id="paint6_linear_2_52" x1="67.1743" y1="369.703" x2="165.802" y2="74.4114" gradientUnits="userSpaceOnUse">
<stop stop-color="#0EFB8C"/>
<stop offset="1" stop-color="#00AFE1"/>
</linearGradient>
<linearGradient id="paint7_linear_2_52" x1="67.1743" y1="369.703" x2="165.802" y2="74.4114" gradientUnits="userSpaceOnUse">
<stop stop-color="#0EFB8C"/>
<stop offset="1" stop-color="#00AFE1"/>
</linearGradient>
<linearGradient id="paint8_linear_2_52" x1="67.1743" y1="369.703" x2="165.802" y2="74.4114" gradientUnits="userSpaceOnUse">
<stop stop-color="#0EFB8C"/>
<stop offset="1" stop-color="#00AFE1"/>
</linearGradient>
<linearGradient id="paint9_linear_2_52" x1="67.1743" y1="369.703" x2="165.802" y2="74.4114" gradientUnits="userSpaceOnUse">
<stop stop-color="#0EFB8C"/>
<stop offset="1" stop-color="#00AFE1"/>
</linearGradient>
<linearGradient id="paint10_linear_2_52" x1="67.1743" y1="369.703" x2="165.802" y2="74.4114" gradientUnits="userSpaceOnUse">
<stop stop-color="#0EFB8C"/>
<stop offset="1" stop-color="#00AFE1"/>
</linearGradient>
</defs>
</svg>
